<svg xmlns="http://www.w3.org/2000/svg" xmlns:xlink="http://www.w3.org/1999/xlink" width="1920" height="1080" viewBox="0 0 1920 1080">
  <defs>
    <clipPath id="clip-path">
      <rect width="233" height="233" fill="none"/>
    </clipPath>
    <clipPath id="clip-path-2">
      <rect width="45" height="46" fill="none"/>
    </clipPath>
    <clipPath id="clip-path-3">
      <rect width="45" height="45" fill="none"/>
    </clipPath>
    <clipPath id="clip-kds_wireframe_registration">
      <rect width="1920" height="1080"/>
    </clipPath>
  </defs>
  <g id="kds_wireframe_registration" clip-path="url(#clip-kds_wireframe_registration)">
    <rect width="1920" height="1080" fill="#fff"/>
    <g id="Menu_component" data-name="Menu component" transform="translate(-1)">
      <g id="Rectangle_1522" data-name="Rectangle 1522" stroke="#707070" stroke-width="1">
        <rect width="412" height="1090" stroke="none"/>
        <rect x="0.5" y="0.5" width="411" height="1089" fill="none"/>
      </g>
      <g id="Menu" transform="translate(123 275)">
        <rect id="Rectangle_1515" data-name="Rectangle 1515" width="186" height="559" fill="none"/>
      </g>
      <line id="Line_6" data-name="Line 6" x2="230" transform="translate(92.5 836.5)" fill="none" stroke="#fff" stroke-width="1"/>
      <g id="Instagram" transform="translate(225.752 880.105)">
        <path id="Path_3" data-name="Path 3" d="M19.376,3.445a59.411,59.411,0,0,1,7.75.215,9.985,9.985,0,0,1,3.66.646,7.561,7.561,0,0,1,3.66,3.66,9.985,9.985,0,0,1,.646,3.66c0,1.938.215,2.583.215,7.75a59.41,59.41,0,0,1-.215,7.75,9.986,9.986,0,0,1-.646,3.66,7.561,7.561,0,0,1-3.66,3.66,9.985,9.985,0,0,1-3.66.646c-1.938,0-2.583.215-7.75.215a59.41,59.41,0,0,1-7.75-.215,9.986,9.986,0,0,1-3.66-.646,7.561,7.561,0,0,1-3.66-3.66,9.985,9.985,0,0,1-.646-3.66c0-1.938-.215-2.583-.215-7.75a59.411,59.411,0,0,1,.215-7.75,9.985,9.985,0,0,1,.646-3.66A7.732,7.732,0,0,1,5.813,5.813,3.64,3.64,0,0,1,7.966,4.306a9.985,9.985,0,0,1,3.66-.646,59.411,59.411,0,0,1,7.75-.215m0-3.445A63.611,63.611,0,0,0,11.41.215a13.291,13.291,0,0,0-4.736.861A8.428,8.428,0,0,0,3.229,3.229,8.428,8.428,0,0,0,1.076,6.674,9.809,9.809,0,0,0,.215,11.41,63.611,63.611,0,0,0,0,19.376a63.611,63.611,0,0,0,.215,7.966,13.291,13.291,0,0,0,.861,4.736,8.428,8.428,0,0,0,2.153,3.445,8.428,8.428,0,0,0,3.445,2.153,13.291,13.291,0,0,0,4.736.861,63.611,63.611,0,0,0,7.966.215,63.611,63.611,0,0,0,7.966-.215,13.291,13.291,0,0,0,4.736-.861,9.032,9.032,0,0,0,5.6-5.6,13.291,13.291,0,0,0,.861-4.736c0-2.153.215-2.8.215-7.966a63.611,63.611,0,0,0-.215-7.966,13.291,13.291,0,0,0-.861-4.736,8.428,8.428,0,0,0-2.153-3.445,8.428,8.428,0,0,0-3.445-2.153A13.291,13.291,0,0,0,27.342.215,63.611,63.611,0,0,0,19.376,0m0,9.473a9.744,9.744,0,0,0-9.9,9.9,9.9,9.9,0,1,0,9.9-9.9m0,16.362a6.343,6.343,0,0,1-6.459-6.459,6.343,6.343,0,0,1,6.459-6.459,6.343,6.343,0,0,1,6.459,6.459,6.343,6.343,0,0,1-6.459,6.459M29.71,6.674a2.368,2.368,0,1,0,2.368,2.368A2.389,2.389,0,0,0,29.71,6.674" fill="#fff" fill-rule="evenodd"/>
      </g>
      <g id="Facebook" transform="translate(160.496 866.273)">
        <rect id="Rectangle_1458" data-name="Rectangle 1458" fill="none"/>
        <path id="Path_1" data-name="Path 1" d="M93.885,40.972V22.307h6.373l.91-7.284H93.885V10.471c0-2.049.683-3.642,3.642-3.642h3.87V.228C100.486.228,98.21,0,95.706,0c-5.463,0-9.332,3.414-9.332,9.56v5.463H80v7.284h6.373V40.972Z" transform="translate(-77 11.574)" fill="#fff" fill-rule="evenodd"/>
      </g>
      <g id="Image" transform="translate(100 57)" clip-path="url(#clip-path)">
        <rect id="Rectangle_549" data-name="Rectangle 549" width="233" height="233" fill="none"/>
        <path id="Path_148" data-name="Path 148" d="M217.467,0c3.883,0,7.767,2.544,9.708,5.089C231.058,10.178,233,12.722,233,20.356V211.189a22.931,22.931,0,0,1-3.883,12.722c-3.883,2.544-5.825,5.089-11.65,5.089H15.533c-5.825,0-7.767-2.544-11.65-5.089C1.942,218.822,0,216.278,0,208.644V20.356A22.932,22.932,0,0,1,3.883,7.633C7.767,2.544,9.708,0,15.533,0ZM66.017,45.8a19.621,19.621,0,0,0-31.067,0c-3.883,5.089-5.825,12.722-5.825,20.356s1.942,15.267,5.825,20.356a19.621,19.621,0,0,0,31.067,0c3.883-5.089,5.825-12.722,5.825-20.356S69.9,50.889,66.017,45.8ZM203.875,190.833l-58.25-114.5L93.2,165.389,58.25,132.311,29.125,190.833Z" transform="translate(0 2)" fill="#fff"/>
      </g>
      <text id="Menu_item" data-name="Menu item" transform="translate(154 406)" fill="#fff" font-size="21" font-family="Arial-BoldMT, Arial" font-weight="700"><tspan x="0" y="0">Menu item</tspan></text>
      <text id="Menu_item-2" data-name="Menu item" transform="translate(154 493)" fill="#fff" font-size="21" font-family="Arial-BoldMT, Arial" font-weight="700"><tspan x="0" y="0">Menu item</tspan></text>
      <text id="Menu_item-3" data-name="Menu item" transform="translate(154 579)" fill="#fff" font-size="21" font-family="Arial-BoldMT, Arial" font-weight="700"><tspan x="0" y="0">Menu item</tspan></text>
      <text id="Menu_item-4" data-name="Menu item" transform="translate(154 666)" fill="#fff" font-size="21" font-family="Arial-BoldMT, Arial" font-weight="700"><tspan x="0" y="0">Menu item</tspan></text>
      <text id="Menu_item-5" data-name="Menu item" transform="translate(154 752)" fill="#fff" font-size="21" font-family="Arial-BoldMT, Arial" font-weight="700"><tspan x="0" y="0">Menu item</tspan></text>
    </g>
    <g id="Registration_confirmation" data-name="Registration confirmation" transform="translate(-7968 -9350.123)">
      <text id="Lorem_ipsum_dolor_sit_amet_consectetur_adipisicing_elit_sed_do_eiusmod_tempor_incididunt_ero_labore_et_dolore_magna_aliqua._Ut_enim_ad_minim_veniam_quis_nostrud_exercitation_ullamco_poriti_laboris_nisi_ut_aliquip_ex_ea_commodo_consequat." data-name="Lorem ipsum dolor sit amet, consectetur adipisicing elit, sed do eiusmod tempor #incididunt ero labore et dolore magna aliqua. Ut enim ad minim veniam, quis nostrud exercitation ullamco poriti laboris nisi ut aliquip ex ea commodo consequat." transform="translate(8735 10099.123)" fill="#ccc" font-size="22" font-family="ArialMT, Arial"><tspan x="0" y="20">Lorem ipsum dolor sit amet, consectetur adipisicing elit, sed do eiusmod tempor </tspan><tspan x="0" y="42" fill="#7f7f7f">#incididunt </tspan><tspan y="42">ero labore et dolore magna aliqua. Ut enim ad minim veniam, quis </tspan><tspan x="0" y="64">nostrud exercitation ullamco poriti laboris nisi ut aliquip ex ea commodo </tspan><tspan x="0" y="86">consequat.</tspan></text>
      <rect id="Rectangle_1466" data-name="Rectangle 1466" width="927" height="240" rx="4" transform="translate(8675 9624.123)" fill="#c4c4c4"/>
      <text id="You_have_recieved_a_spot_on_the_following_courses" data-name="You have recieved a spot on the following courses" transform="translate(8701 9593.123)" font-size="37" font-family="ArialMT, Arial"><tspan x="0" y="0">You have recieved a spot on the following courses</tspan></text>
      <g id="Location" transform="translate(8732 9705.459)">
        <text id="Kizomba_-_Intermediate" data-name="Kizomba - Intermediate" transform="translate(0 28.665)" font-size="32" font-family="ArialMT, Arial"><tspan x="0" y="0">Kizomba - Intermediate</tspan></text>
        <text id="Friday_Teacher_John_Doe" data-name="Friday, Teacher John Doe" transform="translate(0 93.665)" fill="#fff" font-size="32" font-family="ArialMT, Arial"><tspan x="0" y="0">Friday, Teacher John Doe</tspan></text>
      </g>
      <text id="Mondays_17:30" data-name="Mondays, 17:30" transform="translate(9389 9731.123)" fill="#fff" font-size="34" font-family="Arial-BoldMT, Arial" font-weight="700"><tspan x="-126.604" y="0">Mondays, 17:30</tspan></text>
      <g id="Time" transform="translate(9204 9697.123)" clip-path="url(#clip-path-2)">
        <path id="Path_13" data-name="Path 13" d="M6.812,6.812A20.614,20.614,0,0,1,22.707,0,20.614,20.614,0,0,1,38.6,6.812a20.614,20.614,0,0,1,6.812,15.9A20.614,20.614,0,0,1,38.6,38.6a20.614,20.614,0,0,1-15.9,6.812A20.614,20.614,0,0,1,6.812,38.6C2.649,34.061,0,29.141,0,22.707A20.614,20.614,0,0,1,6.812,6.812ZM32.926,32.926l2.649-2.649-9.461-9.461L22.707,5.677H18.923v17.03a3.436,3.436,0,0,0,1.135,2.649,1.321,1.321,0,0,0,.757.378Z" fill="#eda0dc"/>
      </g>
      <text id="Storgatan_1" data-name="Storgatan 1" transform="translate(9356 9795.123)" fill="#fff" font-size="34" font-family="Arial-BoldMT, Arial" font-weight="700"><tspan x="-93.517" y="0">Storgatan 1</tspan></text>
      <g id="Places" transform="translate(9204 9761.123)" clip-path="url(#clip-path-3)">
        <rect id="Rectangle_305" data-name="Rectangle 305" width="45" height="45" transform="translate(0 0)" fill="none"/>
        <path id="Path_114" data-name="Path 114" d="M18.629,26.972a7.909,7.909,0,0,0,7.923-7.923,8.152,8.152,0,0,0-7.923-8.206,7.909,7.909,0,0,0-7.923,7.923C10.707,23.011,14.385,26.972,18.629,26.972ZM5.33,5.468a18.808,18.808,0,0,1,26.6,26.6l-13.3,13.3-13.3-13.3A19.321,19.321,0,0,1,5.33,5.468Z" transform="translate(2.814 0.05)" fill="#eda0dc" fill-rule="evenodd"/>
      </g>
    </g>
  </g>
</svg>
