<svg xmlns="http://www.w3.org/2000/svg" xmlns:xlink="http://www.w3.org/1999/xlink" width="428" height="926" viewBox="0 0 428 926">
  <defs>
    <clipPath id="clip-Sign_up_page">
      <rect width="428" height="926"/>
    </clipPath>
  </defs>
  <g id="Sign_up_page" data-name="Sign up page" clip-path="url(#clip-Sign_up_page)">
    <rect width="428" height="926" fill="#fff"/>
    <g id="Rectangle_1" data-name="Rectangle 1" transform="translate(37 239)" stroke="#000" stroke-width="1">
      <rect width="354" height="508" rx="6" stroke="none"/>
      <rect x="0.5" y="0.5" width="353" height="507" rx="5.5" fill="none"/>
    </g>
    <text id="Headline_Headline_Headline" data-name="Headline
Headline 
Headline" transform="translate(118 70)" font-size="43" font-family="Arial-BoldMT, Arial" font-weight="700"><tspan x="-89.611" y="39">Headline</tspan><tspan x="-89.611" y="84">Headline </tspan><tspan x="-89.611" y="129">Headline</tspan></text>
    <g id="Rectangle_2" data-name="Rectangle 2" transform="translate(78 319)" fill="#fff" stroke="#707070" stroke-width="1">
      <rect width="273" height="40" rx="6" stroke="none"/>
      <rect x="0.5" y="0.5" width="272" height="39" rx="5.5" fill="none"/>
    </g>
    <g id="Rectangle_3" data-name="Rectangle 3" transform="translate(78 379)" fill="#fff" stroke="#707070" stroke-width="1">
      <rect width="273" height="40" rx="6" stroke="none"/>
      <rect x="0.5" y="0.5" width="272" height="39" rx="5.5" fill="none"/>
    </g>
    <g id="Rectangle_4" data-name="Rectangle 4" transform="translate(78 439)" fill="#fff" stroke="#707070" stroke-width="1">
      <rect width="273" height="40" rx="6" stroke="none"/>
      <rect x="0.5" y="0.5" width="272" height="39" rx="5.5" fill="none"/>
    </g>
    <g id="Rectangle_5" data-name="Rectangle 5" transform="translate(78 439)" fill="#fff" stroke="#707070" stroke-width="1">
      <rect width="273" height="40" rx="6" stroke="none"/>
      <rect x="0.5" y="0.5" width="272" height="39" rx="5.5" fill="none"/>
    </g>
    <g id="Rectangle_6" data-name="Rectangle 6" transform="translate(125 657)" fill="#fff" stroke="#707070" stroke-width="1">
      <rect width="178" height="40" rx="6" stroke="none"/>
      <rect x="0.5" y="0.5" width="177" height="39" rx="5.5" fill="none"/>
    </g>
    <text id="BUTTON" transform="translate(214 686)" font-size="24" font-family="Arial-BoldMT, Arial" font-weight="700"><tspan x="-49.775" y="0">BUTTON</tspan></text>
    <text id="input" transform="translate(105 345)" fill="#707070" font-size="15" font-family="Arial-BoldMT, Arial" font-weight="700" opacity="0.55"><tspan x="0" y="0">input</tspan></text>
    <text id="input-2" data-name="input" transform="translate(103 405)" fill="#707070" font-size="15" font-family="Arial-BoldMT, Arial" font-weight="700" opacity="0.55"><tspan x="0" y="0">input</tspan></text>
    <text id="input-3" data-name="input" transform="translate(108 464)" fill="#707070" font-size="15" font-family="Arial-BoldMT, Arial" font-weight="700" opacity="0.55"><tspan x="0" y="0">input</tspan></text>
    <g id="Ellipse_1" data-name="Ellipse 1" transform="translate(78 514)" fill="#fff" stroke="#707070" stroke-width="1">
      <circle cx="36" cy="36" r="36" stroke="none"/>
      <circle cx="36" cy="36" r="35.5" fill="none"/>
    </g>
    <g id="Ellipse_2" data-name="Ellipse 2" transform="translate(279 514)" fill="#fff" stroke="#707070" stroke-width="1">
      <circle cx="36" cy="36" r="36" stroke="none"/>
      <circle cx="36" cy="36" r="35.5" fill="none"/>
    </g>
    <g id="Ellipse_3" data-name="Ellipse 3" transform="translate(178 514)" fill="#fff" stroke="#707070" stroke-width="1">
      <circle cx="36" cy="36" r="36" stroke="none"/>
      <circle cx="36" cy="36" r="35.5" fill="none"/>
    </g>
    <text id="A" transform="translate(108 554)" fill="#707070" font-size="10" font-family="Arial-BoldMT, Arial" font-weight="700"><tspan x="0" y="0">A</tspan></text>
    <text id="C" transform="translate(312 554)" fill="#707070" font-size="10" font-family="Arial-BoldMT, Arial" font-weight="700"><tspan x="0" y="0">C</tspan></text>
    <text id="B" transform="translate(211 554)" fill="#707070" font-size="10" font-family="Arial-BoldMT, Arial" font-weight="700"><tspan x="0" y="0">B</tspan></text>
  </g>
</svg>
