<?xml version="1.0" standalone="no"?>
<!DOCTYPE svg PUBLIC "-//W3C//DTD SVG 20010904//EN"
 "http://www.w3.org/TR/2001/REC-SVG-20010904/DTD/svg10.dtd">
<svg version="1.0" xmlns="http://www.w3.org/2000/svg"
 width="2048.000000pt" height="485.000000pt" viewBox="0 0 2048.000000 485.000000"
 preserveAspectRatio="xMidYMid meet">

<g transform="translate(0.000000,485.000000) scale(0.100000,-0.100000)"
fill="#e9896a " stroke="none">
<path d="M13351 4829 c-118 -10 -253 -23 -300 -29 -49 -6 -422 -15 -876 -20
-434 -5 -889 -14 -1010 -21 -248 -14 -261 -14 -400 -6 -55 4 -145 6 -200 5
-193 -3 -283 -1 -560 12 -154 7 -305 13 -335 14 -43 0 -921 -2 -1040 -3 -14 0
-268 0 -565 2 -681 2 -648 2 -790 -7 -66 -4 -259 -9 -430 -11 -170 -2 -368 -9
-440 -14 -340 -25 -667 -27 -1195 -6 -384 15 -1198 61 -1239 71 -13 3 -105 7
-205 10 -99 3 -205 6 -233 8 -52 4 -53 3 -94 -45 -31 -37 -49 -50 -77 -54 -20
-4 -46 -11 -57 -16 -27 -12 -289 -16 -394 -6 -74 8 -83 7 -78 -7 4 -10 1 -16
-8 -16 -23 0 -29 -22 -10 -37 11 -7 33 -13 51 -13 18 0 45 -5 60 -11 16 -5 91
-16 168 -24 154 -16 180 -26 149 -63 -17 -21 -22 -21 -147 -13 -139 9 -143 9
-256 -38 -41 -17 -87 -31 -102 -31 -15 0 -30 -5 -33 -10 -4 -6 -10 -8 -15 -5
-5 3 -11 1 -15 -5 -3 -5 -17 -10 -30 -10 -34 0 -55 -10 -55 -27 0 -9 -6 -13
-15 -9 -8 3 -15 0 -15 -5 0 -7 -10 -5 -24 4 -22 15 -36 13 -36 -4 0 -5 7 -6
15 -3 18 7 19 0 5 -27 -9 -15 -7 -21 5 -25 18 -7 21 -79 4 -90 -6 -3 -8 -17
-5 -30 4 -16 2 -24 -6 -24 -21 0 -61 -66 -53 -89 3 -12 2 -21 -4 -21 -5 0 -2
-14 7 -31 13 -24 14 -33 5 -36 -7 -3 -13 -13 -13 -24 0 -22 -10 -24 -29 -6
-11 10 -11 8 -2 -10 6 -13 17 -23 24 -23 15 0 71 -79 62 -88 -3 -4 -54 -12
-113 -19 -121 -13 -192 -26 -210 -37 -7 -4 -13 -22 -13 -39 -1 -18 -3 -24 -6
-14 -7 27 -28 20 -48 -16 -10 -18 -27 -38 -38 -43 -31 -14 -36 -38 -6 -31 38
10 50 -4 29 -31 -11 -13 -21 -18 -25 -12 -3 6 -11 8 -16 4 -6 -4 -3 -14 7 -26
15 -16 16 -21 5 -28 -11 -6 -10 -9 5 -13 10 -2 2 -5 -19 -6 -34 -1 -38 1 -32
19 7 23 -4 25 -51 8 -46 -16 -82 -98 -43 -98 5 0 8 3 8 8 -4 21 3 34 15 29 7
-3 19 0 25 6 24 24 11 -12 -14 -39 -30 -32 -29 -58 3 -62 25 -4 28 -14 8 -31
-10 -9 -15 -8 -20 4 -3 8 -12 15 -21 15 -8 0 -15 5 -15 11 0 5 -5 7 -10 4 -11
-7 42 -65 59 -65 6 0 11 -7 11 -15 0 -8 15 -22 33 -31 17 -9 39 -24 47 -33 28
-30 62 -141 44 -141 -5 0 -65 -6 -134 -14 -69 -8 -183 -17 -254 -21 -71 -3
-137 -10 -147 -16 -13 -6 -19 -6 -19 1 0 11 -62 14 -73 4 -3 -4 5 -16 19 -27
17 -13 24 -26 21 -38 -4 -14 0 -19 14 -19 26 0 24 -25 -3 -44 l-22 -16 38 -35
c23 -21 49 -35 65 -35 14 0 33 -6 42 -13 29 -22 -9 -70 -74 -93 -21 -8 -22
-23 -3 -30 17 -6 12 -26 -16 -66 -25 -36 -23 -51 4 -42 20 6 19 3 -10 -30 -33
-37 -40 -56 -22 -56 6 0 10 -7 10 -15 0 -8 6 -15 14 -15 21 0 27 -26 12 -62
-7 -18 -11 -39 -8 -47 3 -9 0 -12 -10 -9 -10 4 -14 -3 -15 -29 -1 -42 -5 -47
-32 -38 -13 4 -18 11 -14 22 5 13 2 15 -15 11 -14 -4 -20 -2 -16 4 4 6 -2 8
-12 6 -10 -2 -25 -15 -34 -30 -13 -25 -13 -29 1 -44 10 -9 41 -18 78 -21 47
-4 61 -9 57 -19 -3 -8 1 -14 10 -14 9 0 18 9 21 21 4 16 8 18 14 7 8 -11 10
-11 18 0 7 11 15 11 45 -2 20 -8 36 -20 36 -26 0 -8 6 -8 20 0 17 9 20 8 20
-10 0 -11 7 -20 15 -20 22 0 75 -50 75 -71 0 -9 -11 -24 -25 -33 -35 -23 -22
-41 40 -55 30 -7 57 -17 60 -22 4 -5 17 -9 31 -9 42 0 26 -18 -23 -26 -27 -4
-223 -8 -438 -8 -369 -1 -589 10 -700 34 -22 4 -188 5 -370 1 -283 -6 -336
-10 -370 -25 -36 -15 -38 -18 -21 -28 52 -29 284 -91 411 -109 77 -10 167 -28
200 -38 39 -13 131 -26 259 -36 224 -19 300 -35 434 -94 51 -23 104 -41 117
-41 14 0 25 -4 25 -9 0 -5 13 -12 30 -16 l30 -7 -23 -41 c-12 -23 -22 -59 -23
-80 -1 -61 -33 -85 -121 -93 -40 -4 -73 -10 -73 -14 0 -4 22 -26 50 -49 27
-23 50 -50 50 -60 0 -20 -13 -22 -197 -37 -46 -4 -80 -10 -78 -14 3 -5 -7 -5
-22 -1 -19 5 -36 3 -51 -7 -20 -13 -25 -13 -32 -2 -6 10 -14 11 -32 4 -13 -6
-59 -9 -103 -8 -58 2 -90 -2 -117 -14 -43 -19 -50 -42 -13 -42 14 0 58 -9 97
-20 40 -11 101 -20 135 -20 34 0 64 -4 67 -9 10 -15 -23 -34 -50 -28 -14 2
-49 -4 -77 -14 -29 -11 -72 -19 -96 -19 -56 0 -109 -19 -116 -41 -14 -43 62
-117 103 -101 8 2 17 0 21 -5 3 -5 32 -26 63 -46 31 -20 61 -45 67 -55 16 -30
64 -42 207 -52 72 -6 164 -16 205 -24 41 -8 119 -19 174 -26 134 -15 217 -38
213 -59 -5 -23 -61 -57 -136 -82 -97 -32 -182 -96 -182 -138 0 -13 58 -34 215
-76 77 -21 145 -42 152 -47 6 -5 15 -23 18 -39 4 -16 14 -33 23 -38 9 -5 66
-12 126 -16 61 -4 117 -11 125 -15 31 -15 239 -50 421 -70 332 -36 498 -49
945 -75 758 -44 844 -47 1510 -48 538 -2 736 2 1150 20 553 25 1350 43 1924
43 206 0 482 4 615 10 133 5 408 14 611 20 204 6 469 20 590 30 509 44 591 52
805 81 562 74 1130 103 2290 114 333 3 727 10 875 16 149 5 383 14 520 19 693
26 856 24 1240 -16 326 -34 1027 -56 1115 -36 25 6 81 14 125 17 44 4 123 15
175 26 109 22 398 64 513 74 42 4 80 11 82 16 9 13 -13 93 -26 98 -16 5 -49
39 -49 51 0 6 27 10 60 10 70 0 120 18 154 55 14 15 48 38 78 53 64 33 68 54
13 66 -77 16 -119 31 -123 43 -6 20 57 51 117 59 67 8 88 18 121 56 15 18 38
31 60 34 19 3 130 -8 246 -25 243 -36 262 -37 271 -15 8 21 -5 28 -118 64 -53
16 -107 38 -119 48 -21 17 -22 22 -11 53 12 35 9 42 -38 68 -8 5 -12 15 -8 23
8 22 161 136 192 144 15 4 29 14 32 23 2 9 22 54 43 101 22 47 42 98 46 114
11 44 50 55 238 62 91 4 163 11 160 15 -2 4 -30 13 -60 20 -31 7 -66 20 -77
30 -19 15 -20 19 -7 34 9 11 26 16 49 14 60 -3 69 0 83 28 10 22 23 30 65 38
29 5 58 16 65 23 9 9 13 48 13 130 l0 117 110 17 c61 9 174 25 252 34 77 9
147 20 154 25 21 12 -7 54 -63 94 -50 37 -69 75 -48 100 7 8 35 18 64 21 40 6
58 14 81 39 32 34 150 115 169 115 6 0 28 5 49 11 30 8 37 15 37 34 0 14 9 30
20 37 14 9 20 24 20 48 0 45 6 53 58 79 70 35 66 63 -12 103 -23 11 -57 35
-77 53 -19 17 -49 40 -66 50 -18 10 -37 28 -43 41 -13 23 -5 68 10 59 12 -7
133 12 164 26 26 12 25 34 -1 55 -11 10 -9 18 14 53 26 40 66 61 117 61 19 0
159 98 183 128 19 23 -23 93 -79 137 -84 63 -65 99 94 182 63 32 134 79 162
105 78 71 69 75 -208 99 -169 14 -239 24 -271 38 -79 35 -70 45 65 67 181 30
200 37 200 80 0 28 -20 38 -97 48 -67 8 -124 33 -212 91 -50 32 -80 45 -106
45 -58 0 -229 28 -267 45 -20 8 -62 37 -92 64 -55 48 -58 49 -154 60 -53 7
-117 14 -141 17 -24 3 -51 10 -60 14 -32 17 -279 71 -441 96 -347 54 -429 61
-1015 89 -320 15 -592 31 -1015 59 -124 9 -369 20 -545 26 -176 5 -381 14
-455 20 -187 14 -1037 57 -1375 70 -154 6 -340 18 -413 26 -164 17 -210 17
-481 -7z m-10856 -769 c3 -5 1 -10 -4 -10 -6 0 -11 5 -11 10 0 6 2 10 4 10 3
0 8 -4 11 -10z m-355 -370 c0 -5 -5 -10 -11 -10 -5 0 -7 5 -4 10 3 6 8 10 11
10 2 0 4 -4 4 -10z m52 -22 c-7 -7 -12 -8 -12 -2 0 14 12 26 19 19 2 -3 -1
-11 -7 -17z m-134 -167 c3 -10 0 -12 -12 -8 -22 9 -20 -9 4 -40 11 -15 18 -28
15 -31 -6 -7 -77 28 -73 36 2 4 10 20 18 35 14 29 40 33 48 8z m-332 -2037
c12 -2 24 -11 28 -19 4 -12 -5 -15 -52 -15 -65 0 -139 18 -126 30 17 16 81 18
150 4z"/>
<path d="M1605 2850 c-3 -5 3 -10 14 -10 11 0 23 5 26 10 3 6 -3 10 -14 10
-11 0 -23 -4 -26 -10z"/>
<path d="M1530 2445 c-7 -9 -8 -15 -2 -15 5 0 12 7 16 15 3 8 4 15 2 15 -2 0
-9 -7 -16 -15z"/>
<path d="M1510 2260 c0 -5 5 -10 10 -10 6 0 10 5 10 10 0 6 -4 10 -10 10 -5 0
-10 -4 -10 -10z"/>
<path d="M1235 2100 c-3 -5 1 -10 10 -10 9 0 13 5 10 10 -3 6 -8 10 -10 10 -2
0 -7 -4 -10 -10z"/>
<path d="M1302 2093 c-12 -2 -20 -9 -17 -14 9 -14 35 -11 51 6 16 16 13 17
-34 8z"/>
<path d="M670 1200 c0 -5 5 -10 10 -10 6 0 10 5 10 10 0 6 -4 10 -10 10 -5 0
-10 -4 -10 -10z"/>
</g>
</svg>
